<svg width="24" height="24" viewBox="0 0 24 24" fill="none" xmlns="http://www.w3.org/2000/svg">
<path d="M12.001 2C17.524 2 22.001 6.477 22.001 12C22.001 17.523 17.524 22 12.001 22C6.47798 22 2.00098 17.523 2.00098 12C2.00098 6.477 6.47798 2 12.001 2ZM12.781 7.469L12.697 7.396C12.5696 7.30181 12.4156 7.2504 12.2571 7.24914C12.0987 7.24788 11.9439 7.29684 11.815 7.389L11.721 7.469L11.648 7.553C11.5536 7.68052 11.502 7.8347 11.5008 7.99336C11.4995 8.15203 11.5486 8.307 11.641 8.436L11.721 8.53L14.441 11.25H7.74998L7.64698 11.256C7.48486 11.2785 7.33456 11.3535 7.21901 11.4694C7.10345 11.5853 7.02899 11.7358 7.00698 11.898L6.99998 11.999L7.00698 12.101C7.02929 12.2633 7.10414 12.4138 7.22007 12.5296C7.336 12.6453 7.48664 12.7199 7.64898 12.742L7.74998 12.749H14.44L11.72 15.469L11.647 15.554C11.5387 15.6984 11.4861 15.8771 11.4989 16.0572C11.5117 16.2372 11.589 16.4067 11.7166 16.5343C11.8443 16.662 12.0137 16.7393 12.1938 16.7521C12.3739 16.7649 12.5525 16.7123 12.697 16.604L12.781 16.531L16.782 12.531L16.855 12.446C16.9492 12.3186 17.0006 12.1646 17.0018 12.0061C17.0031 11.8477 16.9541 11.6929 16.862 11.564L16.782 11.47L12.781 7.469Z" fill="#5F6B55"/>
</svg>
