<svg width="20" height="20" viewBox="0 0 20 20" fill="none" xmlns="http://www.w3.org/2000/svg">
<path d="M3.05288 17.1929C2.09778 16.2704 1.33595 15.1669 0.811864 13.9469C0.287774 12.7269 0.011912 11.4147 0.00037384 10.0869C-0.0111643 8.75908 0.241853 7.44229 0.744662 6.21332C1.24747 4.98436 1.99 3.86784 2.92893 2.92891C3.86786 1.98999 4.98437 1.24746 6.21334 0.744646C7.4423 0.241837 8.7591 -0.0111797 10.0869 0.000358494C11.4147 0.0118967 12.7269 0.287759 13.9469 0.811849C15.167 1.33594 16.2704 2.09776 17.1929 3.05286C19.0145 4.93888 20.0224 7.46491 19.9996 10.0869C19.9768 12.7088 18.9251 15.217 17.0711 17.071C15.217 18.9251 12.7089 19.9768 10.0869 19.9996C7.46492 20.0224 4.9389 19.0144 3.05288 17.1929ZM4.46288 15.7829C5.964 17.284 7.99997 18.1273 10.1229 18.1273C12.2458 18.1273 14.2818 17.284 15.7829 15.7829C17.284 14.2817 18.1273 12.2458 18.1273 10.1229C18.1273 7.99995 17.284 5.96399 15.7829 4.46286C14.2818 2.96174 12.2458 2.11841 10.1229 2.11841C7.99997 2.11841 5.964 2.96174 4.46288 4.46286C2.96175 5.96399 2.11843 7.99995 2.11843 10.1229C2.11843 12.2458 2.96175 14.2817 4.46288 15.7829ZM14.3629 7.29286L11.5329 10.1229L14.3629 12.9529L12.9529 14.3629L10.1229 11.5329L7.29288 14.3629L5.88288 12.9529L8.71288 10.1229L5.88288 7.29286L7.29288 5.88286L10.1229 8.71286L12.9529 5.88286L14.3629 7.29286Z" fill="white"/>
</svg>
