<svg width="74" height="74" viewBox="0 0 74 74" fill="none" xmlns="http://www.w3.org/2000/svg">
<circle cx="37" cy="37" r="37" fill="#5F6B55"/>
<path d="M21.0663 27.1479C21.0561 26.9593 21.0088 26.7747 20.9273 26.6044C20.8457 26.4341 20.7314 26.2816 20.5909 26.1555C20.4504 26.0294 20.2864 25.9322 20.1083 25.8695C19.9303 25.8068 19.7416 25.7797 19.553 25.7899C19.3645 25.8001 19.1799 25.8473 19.0096 25.9289C18.8393 26.0105 18.6868 26.1248 18.5607 26.2653C18.4346 26.4058 18.3374 26.5698 18.2747 26.7478C18.2119 26.9259 18.1849 27.1146 18.1951 27.3031L21.0663 27.1479ZM22.9178 19.8013C22.666 20.0795 22.533 20.445 22.5472 20.8199C22.5613 21.1948 22.7214 21.5494 22.9934 21.8078C23.2653 22.0663 23.6276 22.2081 24.0027 22.2032C24.3778 22.1982 24.7362 22.0468 25.0012 21.7812L22.9178 19.8013ZM34.3143 51.8479C34.4741 51.951 34.6528 52.0212 34.84 52.0547C35.0272 52.0882 35.2192 52.0842 35.4048 52.0429C35.5904 52.0017 35.766 51.924 35.9214 51.8144C36.0768 51.7048 36.209 51.5655 36.3101 51.4044C36.4113 51.2434 36.4795 51.0639 36.5108 50.8764C36.5422 50.6888 36.5359 50.4969 36.4926 50.3117C36.4492 50.1266 36.3695 49.9519 36.2581 49.7977C36.1468 49.6436 36.0059 49.5131 35.8438 49.4138L34.3143 51.8479ZM42.8415 52.3194C42.4681 52.2414 42.0791 52.3149 41.7599 52.5237C41.4407 52.7326 41.2175 53.0597 41.1395 53.433C41.0615 53.8064 41.135 54.1955 41.3438 54.5147C41.5526 54.8338 41.8797 55.057 42.2531 55.135L42.8415 52.3194ZM43.8612 43.6676L44.7333 42.7476L42.6479 40.7677L41.7758 41.6877L43.8612 43.6676ZM47.6063 42.3605L51.2672 44.4688L52.7028 41.9771L49.04 39.8688L47.6063 42.3605ZM51.9744 48.8388L49.2508 51.7042L51.3362 53.686L54.0578 50.8187L51.9744 48.8388ZM29.8963 44.463C22.4673 36.6411 21.2215 30.042 21.0663 27.1479L18.1951 27.3031C18.3868 30.849 19.8894 38.1016 27.8129 46.443L29.8963 44.463ZM32.5337 31.7421L33.0818 31.1633L30.9984 29.1834L30.4483 29.7622L32.5337 31.7421ZM33.515 23.9566L31.0981 20.5392L28.7502 22.199L31.1652 25.6165L33.515 23.9566ZM31.4891 30.7512C31.1441 30.4187 30.7959 30.0897 30.4445 29.7641L30.4407 29.768L30.4349 29.7737L30.3391 29.8849C30.1514 30.1337 30.0028 30.4097 29.8983 30.7033C29.7104 31.2304 29.6108 31.928 29.7373 32.7982C29.9864 34.5079 31.1077 36.806 34.0344 39.8899L36.1198 37.908C33.3828 35.0273 32.7081 33.2544 32.5816 32.3804C32.5203 31.9587 32.5816 31.7383 32.6065 31.6674L32.6218 31.631L32.5682 31.7019L32.5337 31.7421L31.4891 30.7512ZM34.0344 39.8879C36.9535 42.9623 39.1577 44.1698 40.8386 44.4439C41.703 44.5838 42.4026 44.4707 42.9316 44.2618C43.2257 44.1475 43.4989 43.9856 43.7404 43.7826L43.8075 43.7175L43.8343 43.6906L43.8478 43.6791L43.8535 43.6734L43.8554 43.6695C43.8554 43.6695 43.8593 43.6676 42.8166 42.6767C41.7739 41.6877 41.7758 41.6858 41.7758 41.6839L41.7797 41.682L41.7835 41.6762L41.795 41.6666L41.8851 41.5861C41.903 41.5759 41.8998 41.5765 41.8755 41.588C41.8372 41.6034 41.6647 41.6647 41.3005 41.6053C40.53 41.4788 38.8663 40.8003 36.1198 37.908L34.0344 39.8879ZM31.0981 20.5392C29.1546 17.7907 25.2676 17.325 22.9178 19.8013L25.0012 21.7812C26.0036 20.727 27.7688 20.8095 28.7502 22.199L31.0981 20.5392ZM49.2508 51.7042C48.7161 52.2677 48.1583 52.5705 47.614 52.6242L47.8958 55.4839C49.3275 55.3439 50.4871 54.5811 51.3362 53.686L49.2508 51.7042ZM33.0818 31.1633C34.9372 29.2102 35.0675 26.155 33.515 23.9566L31.1671 25.6165C31.9759 26.7607 31.8513 28.2864 30.9984 29.1834L33.0818 31.1633ZM51.2672 44.4688C52.8408 45.3754 53.1493 47.6025 51.9744 48.8388L54.0578 50.8187C56.5591 48.1852 55.8308 43.7788 52.7028 41.9771L51.2672 44.4688ZM44.7333 42.7476C45.4712 41.9695 46.6231 41.795 47.6063 42.3605L49.04 39.8688C46.9336 38.6575 44.325 39.0044 42.6479 40.7677L44.7333 42.7476ZM35.8438 49.4138C33.9597 48.2293 31.9529 46.6269 29.8963 44.463L27.8129 46.443C30.0248 48.7717 32.2155 50.5293 34.3143 51.8479L35.8438 49.4138ZM47.6121 52.6242C46.0156 52.7635 44.4073 52.6607 42.8415 52.3194L42.2531 55.135C44.1056 55.5353 46.008 55.6529 47.8958 55.4839L47.6121 52.6242Z" fill="white"/>
</svg>
