<svg width="40" height="41" viewBox="0 0 40 41" fill="none" xmlns="http://www.w3.org/2000/svg">
<rect y="0.149902" width="40" height="40" rx="20" fill="white"/>
<path d="M19.9968 13.9926C16.5895 13.9926 13.8397 16.7424 13.8397 20.1497C13.8397 23.5569 16.5895 26.3067 19.9968 26.3067C23.404 26.3067 26.1538 23.5569 26.1538 20.1497C26.1538 16.7424 23.404 13.9926 19.9968 13.9926ZM19.9968 24.1513C17.7933 24.1513 15.9951 22.3531 15.9951 20.1497C15.9951 17.9462 17.7933 16.148 19.9968 16.148C22.2002 16.148 23.9984 17.9462 23.9984 20.1497C23.9984 22.3531 22.2002 24.1513 19.9968 24.1513ZM26.406 12.3055C25.6105 12.3055 24.968 12.9479 24.968 13.7435C24.968 14.539 25.6105 15.1814 26.406 15.1814C27.2015 15.1814 27.8439 14.542 27.8439 13.7435C27.8442 13.5546 27.8071 13.3675 27.735 13.1929C27.6628 13.0183 27.5569 12.8597 27.4233 12.7262C27.2897 12.5926 27.1311 12.4867 26.9565 12.4145C26.782 12.3423 26.5949 12.3053 26.406 12.3055ZM31.9987 20.1497C31.9987 18.4926 32.0137 16.8505 31.9206 15.1964C31.8275 13.2752 31.3893 11.57 29.9843 10.1651C28.5764 8.75719 26.8743 8.32191 24.953 8.22885C23.2959 8.13579 21.6539 8.1508 19.9998 8.1508C18.3427 8.1508 16.7006 8.13579 15.0465 8.22885C13.1253 8.32191 11.4201 8.7602 10.0152 10.1651C8.60729 11.573 8.17201 13.2752 8.07894 15.1964C7.98588 16.8535 8.00089 18.4956 8.00089 20.1497C8.00089 21.8038 7.98588 23.4488 8.07894 25.1029C8.17201 27.0242 8.61029 28.7293 10.0152 30.1342C11.4231 31.5422 13.1253 31.9774 15.0465 32.0705C16.7036 32.1636 18.3457 32.1486 19.9998 32.1486C21.6569 32.1486 23.2989 32.1636 24.953 32.0705C26.8743 31.9774 28.5794 31.5392 29.9843 30.1342C31.3923 28.7263 31.8275 27.0242 31.9206 25.1029C32.0167 23.4488 31.9987 21.8068 31.9987 20.1497ZM29.3569 27.2283C29.1378 27.7747 28.8736 28.183 28.4503 28.6032C28.0271 29.0265 27.6218 29.2907 27.0754 29.5098C25.4964 30.1372 21.7469 29.9961 19.9968 29.9961C18.2466 29.9961 14.4942 30.1372 12.9151 29.5128C12.3688 29.2937 11.9605 29.0295 11.5402 28.6062C11.1169 28.183 10.8528 27.7777 10.6336 27.2313C10.0092 25.6493 10.1503 21.8998 10.1503 20.1497C10.1503 18.3995 10.0092 14.6471 10.6336 13.068C10.8528 12.5217 11.1169 12.1134 11.5402 11.6931C11.9635 11.2728 12.3688 11.0057 12.9151 10.7865C14.4942 10.1621 18.2466 10.3032 19.9968 10.3032C21.7469 10.3032 25.4994 10.1621 27.0784 10.7865C27.6248 11.0057 28.0331 11.2698 28.4533 11.6931C28.8766 12.1164 29.1408 12.5217 29.3599 13.068C29.9843 14.6471 29.8432 18.3995 29.8432 20.1497C29.8432 21.8998 29.9843 25.6493 29.3569 27.2283Z" fill="#9CA696"/>
</svg>
