<svg width="803" height="12" viewBox="0 0 803 12" fill="none" xmlns="http://www.w3.org/2000/svg">
<path d="M0.666667 6C0.666667 8.94552 3.05448 11.3333 6 11.3333C8.94552 11.3333 11.3333 8.94552 11.3333 6C11.3333 3.05448 8.94552 0.666667 6 0.666667C3.05448 0.666667 0.666667 3.05448 0.666667 6ZM791.667 6C791.667 8.94552 794.055 11.3333 797 11.3333C799.945 11.3333 802.333 8.94552 802.333 6C802.333 3.05448 799.945 0.666667 797 0.666667C794.055 0.666667 791.667 3.05448 791.667 6ZM6 7H797V5H6V7Z" fill="#333333"/>
</svg>
