<svg width="952" height="13" viewBox="0 0 952 13" fill="none" xmlns="http://www.w3.org/2000/svg">
<path d="M0.666671 5.99338C0.663016 8.9389 3.04787 11.3297 5.99338 11.3333C8.9389 11.337 11.3297 8.95213 11.3333 6.00662C11.337 3.0611 8.95213 0.670325 6.00662 0.666671C3.0611 0.663016 0.670325 3.04787 0.666671 5.99338ZM940.667 7.15964C940.663 10.1052 943.048 12.4959 945.993 12.4996C948.939 12.5032 951.33 10.1184 951.333 7.17287C951.337 4.22735 948.952 1.83658 946.006 1.83292C943.061 1.82927 940.67 4.21412 940.667 7.15964ZM5.99876 7L945.999 8.16625L946.001 6.16625L6.00124 5L5.99876 7Z" fill="white"/>
</svg>
