<svg width="40" height="41" viewBox="0 0 40 41" fill="none" xmlns="http://www.w3.org/2000/svg">
<rect y="0.149902" width="40" height="40" rx="20" fill="white"/>
<path d="M11.8998 10.1501H28.0998C29.0959 10.1501 30.0544 10.5312 30.7784 11.2154C31.5025 11.8995 31.9374 12.8348 31.9938 13.8293L31.9998 14.0501V25.4501C31.9998 26.4463 31.6187 27.4047 30.9345 28.1288C30.2504 28.8529 29.3151 29.2878 28.3206 29.3441L28.0998 29.3501H11.8998C10.9036 29.3502 9.94516 28.9691 9.22108 28.2849C8.497 27.6008 8.06215 26.6655 8.00576 25.6709L7.99976 25.4501V14.0501C7.99969 13.054 8.38082 12.0956 9.06496 11.3715C9.7491 10.6474 10.6844 10.2125 11.679 10.1561L11.8998 10.1501ZM30.1998 16.5977L20.4198 21.7457C20.3093 21.8041 20.188 21.8388 20.0634 21.8477C19.9388 21.8566 19.8137 21.8394 19.6962 21.7973L19.581 21.7469L9.79976 16.5989V25.4501C9.79978 25.9772 9.99796 26.4849 10.355 26.8726C10.712 27.2603 11.2017 27.4996 11.727 27.5429L11.8998 27.5501H28.0998C28.627 27.5501 29.1349 27.3518 29.5226 26.9945C29.9103 26.6372 30.1495 26.1472 30.1926 25.6217L30.1998 25.4501V16.5977ZM28.0998 11.9501H11.8998C11.3727 11.9502 10.865 12.1484 10.4773 12.5054C10.0896 12.8624 9.85032 13.3521 9.80696 13.8773L9.79976 14.0501V14.5649L19.9998 19.9337L30.1998 14.5637V14.0501C30.1997 13.5229 30.0014 13.015 29.6441 12.6273C29.2868 12.2396 28.7968 12.0004 28.2714 11.9573L28.0998 11.9501Z" fill="#9CA696"/>
</svg>
