<svg width="42" height="42" viewBox="0 0 42 42" fill="none" xmlns="http://www.w3.org/2000/svg">
<circle cx="21" cy="21" r="21" fill="#5F6B55"/>
<path d="M20.3989 2.21212C20.8514 1.30293 22.1486 1.30293 22.6011 2.21212L28.1292 13.3178C28.2484 13.5574 28.4426 13.7516 28.6822 13.8708L39.7879 19.3989C40.6971 19.8514 40.6971 21.1486 39.7879 21.6011L28.6822 27.1292C28.4426 27.2484 28.2484 27.4426 28.1292 27.6822L22.6011 38.7879C22.1486 39.6971 20.8514 39.6971 20.3989 38.7879L14.8708 27.6822C14.7516 27.4426 14.5574 27.2484 14.3178 27.1292L3.21212 21.6011C2.30293 21.1486 2.30293 19.8514 3.21212 19.3989L14.3178 13.8708C14.5574 13.7516 14.7516 13.5574 14.8708 13.3178L20.3989 2.21212Z" fill="#EEF1E0"/>
</svg>
