<svg width="88" height="16" viewBox="0 0 88 16" fill="none" xmlns="http://www.w3.org/2000/svg">
<path d="M7.5435 1.40479C7.6872 0.962581 8.3128 0.962581 8.4565 1.40479L9.6885 5.196C9.75276 5.39376 9.93705 5.52765 10.145 5.52766L14.1314 5.52781C14.5963 5.52783 14.7896 6.12281 14.4135 6.39613L11.1885 8.73938C11.0203 8.8616 10.9499 9.07825 11.0142 9.27601L12.2459 13.0673C12.3896 13.5095 11.8834 13.8773 11.5073 13.604L8.28212 11.261C8.11389 11.1387 7.88611 11.1387 7.71788 11.261L4.49275 13.604C4.11657 13.8773 3.61045 13.5095 3.75411 13.0673L4.98583 9.27601C5.05007 9.07825 4.97968 8.8616 4.81146 8.73938L1.58651 6.39613C1.21036 6.12281 1.40368 5.52783 1.86865 5.52781L5.85502 5.52766C6.06295 5.52765 6.24724 5.39376 6.3115 5.196L7.5435 1.40479Z" fill="#5F6B55"/>
<path d="M25.5435 1.40479C25.6872 0.962581 26.3128 0.962581 26.4565 1.40479L27.6885 5.196C27.7528 5.39376 27.937 5.52765 28.145 5.52766L32.1314 5.52781C32.5963 5.52783 32.7896 6.12281 32.4135 6.39613L29.1885 8.73938C29.0203 8.8616 28.9499 9.07824 29.0142 9.27601L30.2459 13.0673C30.3896 13.5095 29.8834 13.8773 29.5073 13.604L26.2821 11.261C26.1139 11.1387 25.8861 11.1387 25.7179 11.261L22.4927 13.604C22.1166 13.8773 21.6104 13.5095 21.7541 13.0673L22.9858 9.27601C23.0501 9.07824 22.9797 8.8616 22.8115 8.73938L19.5865 6.39613C19.2104 6.12281 19.4037 5.52783 19.8686 5.52781L23.855 5.52766C24.063 5.52765 24.2472 5.39376 24.3115 5.196L25.5435 1.40479Z" fill="#5F6B55"/>
<path d="M43.5435 1.40479C43.6872 0.962581 44.3128 0.962581 44.4565 1.40479L45.6885 5.196C45.7528 5.39376 45.937 5.52765 46.145 5.52766L50.1314 5.52781C50.5963 5.52783 50.7896 6.12281 50.4135 6.39613L47.1885 8.73938C47.0203 8.8616 46.9499 9.07825 47.0142 9.27601L48.2459 13.0673C48.3896 13.5095 47.8834 13.8773 47.5073 13.604L44.2821 11.261C44.1139 11.1387 43.8861 11.1387 43.7179 11.261L40.4927 13.604C40.1166 13.8773 39.6104 13.5095 39.7541 13.0673L40.9858 9.27601C41.0501 9.07825 40.9797 8.8616 40.8115 8.73938L37.5865 6.39613C37.2104 6.12281 37.4037 5.52783 37.8686 5.52781L41.855 5.52766C42.063 5.52765 42.2472 5.39376 42.3115 5.196L43.5435 1.40479Z" fill="#5F6B55"/>
<path d="M61.5435 1.40479C61.6872 0.962581 62.3128 0.962581 62.4565 1.40479L63.6885 5.196C63.7528 5.39376 63.937 5.52765 64.145 5.52766L68.1314 5.52781C68.5963 5.52783 68.7896 6.12281 68.4135 6.39613L65.1885 8.73938C65.0203 8.8616 64.9499 9.07825 65.0142 9.27601L66.2459 13.0673C66.3896 13.5095 65.8834 13.8773 65.5073 13.604L62.2821 11.261C62.1139 11.1387 61.8861 11.1387 61.7179 11.261L58.4927 13.604C58.1166 13.8773 57.6104 13.5095 57.7541 13.0673L58.9858 9.27601C59.0501 9.07825 58.9797 8.8616 58.8115 8.73938L55.5865 6.39613C55.2104 6.12281 55.4037 5.52783 55.8686 5.52781L59.855 5.52766C60.063 5.52765 60.2472 5.39376 60.3115 5.196L61.5435 1.40479Z" fill="#5F6B55"/>
<path d="M79.5435 1.40479C79.6872 0.962581 80.3128 0.962581 80.4565 1.40479L81.6885 5.196C81.7528 5.39376 81.937 5.52765 82.145 5.52766L86.1314 5.52781C86.5963 5.52783 86.7896 6.12281 86.4135 6.39613L83.1885 8.73938C83.0203 8.8616 82.9499 9.07825 83.0142 9.27601L84.2459 13.0673C84.3896 13.5095 83.8834 13.8773 83.5073 13.604L80.2821 11.261C80.1139 11.1387 79.8861 11.1387 79.7179 11.261L76.4927 13.604C76.1166 13.8773 75.6104 13.5095 75.7541 13.0673L76.9858 9.27601C77.0501 9.07825 76.9797 8.8616 76.8115 8.73938L73.5865 6.39613C73.2104 6.12281 73.4037 5.52783 73.8686 5.52781L77.855 5.52766C78.063 5.52765 78.2472 5.39376 78.3115 5.196L79.5435 1.40479Z" fill="#5F6B55"/>
</svg>
