<svg width="40" height="41" viewBox="0 0 40 41" fill="none" xmlns="http://www.w3.org/2000/svg">
<rect y="0.149902" width="40" height="40" rx="20" fill="white"/>
<path d="M28.5025 11.642C27.3967 10.5309 26.0796 9.64993 24.6282 9.0504C23.1767 8.45088 21.6198 8.14479 20.0482 8.14997C13.4633 8.14997 8.09648 13.49 8.09648 20.042C8.09648 22.142 8.65126 24.182 9.68844 25.982L8 32.15L14.3317 30.494C16.0804 31.442 18.0462 31.946 20.0482 31.946C26.6332 31.946 32 26.606 32 20.054C32 16.874 30.7578 13.886 28.5025 11.642ZM20.0482 29.93C18.2633 29.93 16.5146 29.45 14.9829 28.55L14.6211 28.334L10.8583 29.318L11.8593 25.67L11.6181 25.298C10.6262 23.7224 10.0996 21.9011 10.0985 20.042C10.0985 14.594 14.5608 10.154 20.0362 10.154C22.6894 10.154 25.1859 11.186 27.0553 13.058C27.981 13.9746 28.7147 15.065 29.2136 16.266C29.7126 17.4669 29.9669 18.7545 29.9618 20.054C29.9859 25.502 25.5236 29.93 20.0482 29.93ZM25.4995 22.538C25.198 22.394 23.7266 21.674 23.4613 21.566C23.1839 21.47 22.991 21.422 22.7859 21.71C22.5809 22.01 22.0141 22.682 21.8452 22.874C21.6764 23.078 21.4955 23.102 21.194 22.946C20.8925 22.802 19.9276 22.478 18.794 21.47C17.9015 20.678 17.3106 19.706 17.1296 19.406C16.9608 19.106 17.1055 18.95 17.2623 18.794C17.395 18.662 17.5638 18.446 17.7085 18.278C17.8533 18.11 17.9136 17.978 18.01 17.786C18.1065 17.582 18.0583 17.414 17.9859 17.27C17.9136 17.126 17.3106 15.662 17.0693 15.062C16.8281 14.486 16.5749 14.558 16.394 14.546H15.8151C15.61 14.546 15.2965 14.618 15.0191 14.918C14.7538 15.218 13.9819 15.938 13.9819 17.402C13.9819 18.866 15.0553 20.282 15.2 20.474C15.3447 20.678 17.3106 23.678 20.3015 24.962C21.0131 25.274 21.5678 25.454 22.002 25.586C22.7136 25.814 23.3648 25.778 23.8834 25.706C24.4623 25.622 25.6563 24.986 25.8975 24.29C26.1508 23.594 26.1508 23.006 26.0663 22.874C25.9819 22.742 25.801 22.682 25.4995 22.538Z" fill="#9CA696"/>
</svg>
